<?xml version="1.0" standalone="no"?>
<!DOCTYPE svg PUBLIC "-//W3C//DTD SVG 20010904//EN"
 "http://www.w3.org/TR/2001/REC-SVG-20010904/DTD/svg10.dtd">
<svg version="1.0" xmlns="http://www.w3.org/2000/svg"
 width="16.000000pt" height="16.000000pt" viewBox="0 0 16.000000 16.000000"
 preserveAspectRatio="xMidYMid meet">
<metadata>
Created by potrace 1.11, written by Peter Selinger 2001-2013
</metadata>
<g transform="translate(0.000000,16.000000) scale(0.004211,-0.004211)"
fill="#000000" stroke="none">
<path d="M1727 3543 c-1 0 -23 -3 -49 -6 -25 -3 -51 -8 -56 -11 -6 -3 -23 -8
-39 -11 -53 -8 -97 -23 -156 -55 -69 -37 -140 -98 -168 -145 -13 -22 -22 -43
-21 -47 1 -5 -2 -8 -7 -8 -12 0 -41 -109 -47 -178 -3 -31 -6 -482 -7 -1002
l-2 -945 22 -59 c12 -32 29 -69 38 -82 8 -13 15 -26 15 -29 1 -18 116 -107
170 -131 66 -30 86 -38 100 -38 8 -1 21 -5 28 -10 7 -4 16 -6 18 -3 3 3 20 1
37 -4 18 -6 61 -12 97 -14 36 -2 65 -5 65 -6 0 -7 82 -2 87 6 5 7 8 7 8 -1 0
-6 15 -9 33 -8 81 5 166 15 195 24 18 5 35 9 37 9 3 1 6 1 8 2 1 0 13 2 26 5
14 2 30 9 36 14 7 5 14 7 17 5 14 -15 175 90 222 144 12 13 26 29 31 35 12 13
51 93 59 121 15 56 18 134 21 675 l4 585 -24 50 c-24 51 -83 108 -143 139 -17
9 -35 17 -39 17 -5 1 -17 6 -27 11 -44 24 -145 36 -276 32 -118 -3 -150 -5
-195 -18 -26 -7 -65 -30 -65 -38 0 -5 -4 -7 -8 -4 -5 3 -8 27 -7 53 1 26 -2
56 -7 66 -5 9 -5 17 -1 17 5 0 8 70 8 156 -1 176 5 194 63 199 18 1 35 4 38 7
7 7 68 -14 88 -31 13 -11 15 -35 13 -151 l-2 -138 156 0 c86 1 162 -2 168 -6
6 -4 11 -3 11 1 0 10 53 9 69 -2 6 -3 11 -3 11 2 0 4 38 7 85 5 l85 -3 -1 191
c-1 205 -9 253 -54 346 -27 55 -100 137 -145 163 -34 20 -103 54 -115 57 -5 2
-35 10 -65 18 -86 23 -144 29 -298 30 -79 0 -144 0 -145 -1z m510 -1455 c9
-10 19 -27 21 -36 7 -36 8 -191 1 -186 -4 2 -10 0 -14 -6 -4 -6 -10 -8 -15 -5
-5 3 -11 1 -15 -5 -4 -6 -10 -8 -14 -6 -4 3 -23 1 -42 -4 -19 -5 -54 -12 -78
-15 -52 -7 -87 -20 -96 -34 -3 -6 -6 -56 -7 -111 0 -96 -5 -111 -33 -116 -39
-6 -94 -27 -112 -43 -22 -18 -23 -24 -23 -239 -1 -197 -3 -221 -18 -228 -40
-17 -152 -27 -152 -13 0 5 -4 7 -10 4 -5 -3 -10 1 -10 10 0 10 -5 13 -12 9 -8
-5 -9 0 -3 17 4 13 9 165 11 337 1 173 4 316 6 318 2 2 1 28 -2 59 -3 31 -4
58 -1 60 8 8 0 118 -10 137 -6 11 -4 21 6 32 8 8 15 19 15 25 0 10 22 19 61
24 8 2 19 6 26 10 6 4 15 3 18 -3 5 -8 11 -8 20 0 9 7 15 8 19 1 4 -6 13 -8
21 -5 8 3 19 -4 26 -18 17 -33 29 -38 74 -33 35 4 69 14 223 70 49 18 99 15
119 -7z"/>
<path d="M1910 1791 c0 -3 9 -14 20 -24 25 -21 26 -41 3 -34 -32 9 -38 9 -59
8 -40 -2 -56 -24 -58 -80 -1 -29 2 -57 6 -64 7 -12 123 -15 135 -4 10 10 10
150 0 174 -9 20 -47 40 -47 24z"/>
<path d="M1002 2995 c-40 -13 -74 -23 -75 -23 -1 0 -42 -12 -92 -28 -92 -28
-104 -32 -130 -37 -8 -2 -18 -6 -21 -10 -4 -4 -17 -7 -29 -7 -11 0 -25 -4 -31
-9 -7 -6 -116 -44 -164 -56 -32 -9 -38 -18 -30 -46 5 -16 6 -29 3 -29 -3 0 -1
-6 4 -12 8 -11 22 -49 27 -78 1 -3 5 -11 9 -17 5 -7 6 -13 2 -13 -3 0 -1 -8 4
-18 6 -11 12 -30 15 -43 2 -13 12 -44 20 -68 9 -24 18 -53 20 -65 3 -12 11
-40 20 -63 8 -24 13 -43 9 -43 -3 0 0 -7 7 -15 7 -8 9 -15 6 -15 -4 0 -2 -9 4
-21 6 -11 13 -29 15 -39 2 -10 18 -64 35 -119 17 -55 33 -108 35 -118 2 -10 4
-19 5 -20 3 -3 3 -3 15 -48 4 -16 12 -36 18 -42 5 -7 7 -13 4 -13 -3 0 3 -25
13 -56 11 -31 17 -60 14 -65 -3 -5 0 -9 5 -9 6 0 11 -6 11 -13 0 -13 52 -187
85 -287 8 -25 17 -54 19 -65 2 -11 9 -33 15 -48 6 -16 9 -32 6 -37 -3 -5 -1
-10 3 -12 9 -3 43 -111 45 -140 1 -10 5 -18 9 -18 4 0 7 -3 6 -7 -1 -5 6 -33
15 -63 10 -30 19 -62 20 -70 2 -8 6 -21 10 -28 5 -6 5 -12 1 -12 -3 0 -2 -6 3
-12 5 -7 18 -42 28 -78 9 -36 26 -90 36 -121 11 -30 19 -62 19 -70 0 -12 71
-54 260 -154 32 -16 65 -36 74 -44 9 -7 16 -10 16 -7 0 4 12 -1 28 -12 15 -10
42 -25 60 -33 17 -8 32 -16 32 -19 0 -3 25 -17 55 -30 30 -13 55 -28 55 -33 0
-4 5 -5 10 -2 6 3 10 2 10 -3 0 -5 8 -12 18 -15 9 -3 50 -24 91 -46 l74 -40
51 28 c28 16 96 52 151 81 113 60 252 136 275 150 8 5 35 20 60 33 166 87 226
121 237 134 9 12 46 119 58 168 1 6 5 17 8 25 11 29 38 117 42 138 2 11 8 29
13 39 6 10 11 23 12 28 3 12 5 19 21 70 7 22 13 47 14 55 1 8 7 28 14 43 6 16
11 34 11 41 0 7 3 16 7 20 4 3 8 12 9 19 1 7 16 57 34 112 18 55 33 104 35
110 1 5 4 17 8 25 13 37 79 250 77 252 -1 2 7 26 18 53 11 28 20 52 19 55 0 3
5 22 12 43 7 21 14 44 15 50 2 7 8 24 14 39 6 15 13 38 14 50 2 13 6 28 9 33
8 12 30 79 34 103 2 9 4 18 5 20 2 1 3 5 4 10 2 4 11 34 21 67 10 33 18 62 17
65 0 3 3 10 7 15 4 6 14 33 20 60 7 28 17 59 21 70 11 26 51 152 54 168 1 7 4
17 8 22 8 14 20 73 16 82 -2 4 -7 9 -13 10 -13 3 -276 92 -295 100 -8 3 -24 8
-35 10 -30 7 -38 9 -57 17 -9 4 -22 9 -30 10 -7 1 -33 8 -58 15 -25 7 -46 13
-47 12 -2 0 -18 6 -38 15 -19 8 -35 11 -35 7 0 -4 -5 -2 -12 5 -17 17 -28 15
-21 -5 3 -10 33 -81 65 -158 32 -77 67 -159 77 -183 l18 -43 -41 -102 c-23
-56 -45 -105 -49 -108 -5 -3 -8 -9 -8 -13 2 -10 -2 -23 -17 -59 -7 -16 -12
-30 -12 -31 0 -2 -8 -21 -17 -42 -9 -22 -17 -41 -18 -44 -3 -9 -18 -45 -38
-90 -19 -42 -20 -71 -23 -500 -4 -401 -6 -498 -14 -507 -2 -2 -3 -6 -5 -10 -3
-13 -16 -47 -28 -73 -6 -14 -10 -28 -9 -32 1 -5 -2 -8 -7 -8 -5 0 -12 -9 -16
-20 -6 -19 -69 -86 -115 -124 -61 -49 -217 -114 -312 -130 -32 -5 -48 -14 -48
-25 0 -5 -10 -30 -22 -57 -12 -27 -22 -51 -23 -54 -2 -18 -61 -156 -68 -161
-5 -3 -8 -8 -7 -10 4 -11 -13 -59 -22 -59 -5 0 -6 -5 -3 -10 4 -6 2 -16 -3
-23 -5 -7 -15 -29 -22 -50 -12 -37 -12 -38 -27 -18 -8 12 -16 30 -18 40 -2 11
-8 28 -13 38 -6 10 -33 78 -61 152 -28 74 -58 148 -65 165 -8 17 -16 37 -18
45 -4 14 -24 21 -65 24 -13 0 -23 4 -23 9 0 4 -7 5 -15 2 -8 -4 -22 -1 -30 6
-8 7 -15 10 -15 7 0 -10 -101 28 -157 59 -29 15 -53 32 -53 36 0 4 -5 8 -10 8
-6 0 -25 15 -43 32 -77 79 -124 183 -134 303 -2 28 -5 62 -7 78 -1 15 1 32 5
39 4 6 3 22 -2 35 -5 12 -5 23 -1 23 9 0 7 58 -1 67 -3 3 -2 16 3 29 6 15 6
24 0 24 -6 0 -6 9 0 25 6 15 6 27 0 30 -6 3 -6 15 0 30 6 15 6 27 -1 30 -5 4
-6 12 -2 18 11 17 10 51 -2 59 -6 5 -6 8 2 8 8 0 9 9 3 30 -5 17 -5 30 -1 30
5 0 6 12 4 28 -2 15 -4 32 -4 37 6 149 5 242 -4 238 -5 -3 -5 0 2 7 7 8 8 20
3 34 -5 11 -54 136 -110 278 -81 207 -98 261 -91 280 5 12 15 37 22 53 7 17
13 32 14 35 0 3 11 25 22 50 12 25 23 52 25 60 2 8 5 17 8 20 8 7 71 153 68
155 -2 1 -36 -8 -76 -20z"/>
</g>
</svg>
